<svg xmlns="http://www.w3.org/2000/svg" viewBox="0 0 200 200" width="200" height="200">
  <defs>
    <linearGradient id="bg" x1="0%" y1="0%" x2="100%" y2="100%">
      <stop offset="0%" style="stop-color:#0a0e1a"/>
      <stop offset="100%" style="stop-color:#141b2d"/>
    </linearGradient>
    <linearGradient id="accent" x1="0%" y1="0%" x2="0%" y2="100%">
      <stop offset="0%" style="stop-color:#00d4ff"/>
      <stop offset="100%" style="stop-color:#0099cc"/>
    </linearGradient>
  </defs>
  <rect width="200" height="200" rx="32" fill="url(#bg)"/>
  <!-- ASIC chip icon -->
  <rect x="68" y="46" width="64" height="64" rx="7" fill="none" stroke="url(#accent)" stroke-width="3"/>
  <!-- Chip inner -->
  <rect x="80" y="58" width="40" height="40" rx="5" fill="#00d4ff" opacity="0.15"/>
  <!-- Elopool-style pickaxe geometry, recolored for ASICSeer -->
  <g transform="translate(99,79) scale(0.48)" fill="none" stroke="#00d4ff" stroke-width="5" stroke-linecap="round" stroke-linejoin="round">
    <line x1="-20" y1="20" x2="20" y2="-20"/>
    <line x1="20" y1="-20" x2="30" y2="-30"/>
    <path d="M 15,-35 L 30,-30 L 35,-15"/>
    <line x1="-20" y1="20" x2="-30" y2="30"/>
  </g>
  <!-- Chip pins -->
  <line x1="80" y1="46" x2="80" y2="36" stroke="#00d4ff" stroke-width="2"/>
  <line x1="93" y1="46" x2="93" y2="36" stroke="#00d4ff" stroke-width="2"/>
  <line x1="107" y1="46" x2="107" y2="36" stroke="#00d4ff" stroke-width="2"/>
  <line x1="120" y1="46" x2="120" y2="36" stroke="#00d4ff" stroke-width="2"/>
  <line x1="80" y1="110" x2="80" y2="120" stroke="#00d4ff" stroke-width="2"/>
  <line x1="93" y1="110" x2="93" y2="120" stroke="#00d4ff" stroke-width="2"/>
  <line x1="107" y1="110" x2="107" y2="120" stroke="#00d4ff" stroke-width="2"/>
  <line x1="120" y1="110" x2="120" y2="120" stroke="#00d4ff" stroke-width="2"/>
  <line x1="68" y1="60" x2="58" y2="60" stroke="#00d4ff" stroke-width="2"/>
  <line x1="68" y1="78" x2="58" y2="78" stroke="#00d4ff" stroke-width="2"/>
  <line x1="68" y1="96" x2="58" y2="96" stroke="#00d4ff" stroke-width="2"/>
  <line x1="132" y1="60" x2="142" y2="60" stroke="#00d4ff" stroke-width="2"/>
  <line x1="132" y1="78" x2="142" y2="78" stroke="#00d4ff" stroke-width="2"/>
  <line x1="132" y1="96" x2="142" y2="96" stroke="#00d4ff" stroke-width="2"/>
  <!-- ASICSeer text -->
  <text x="100" y="150" text-anchor="middle" font-family="Arial,Helvetica,sans-serif" font-weight="bold" font-size="24" fill="#ffffff">ASICSeer</text>
  <!-- BCH Mining -->
  <text x="100" y="172" text-anchor="middle" font-family="Arial,Helvetica,sans-serif" font-size="12" fill="#00d4ff" opacity="0.8">BCH Mining Pool</text>
</svg>
