<svg xmlns="http://www.w3.org/2000/svg" viewBox="0 0 200 200" width="200" height="200">
  <defs>
    <linearGradient id="bg" x1="0%" y1="0%" x2="100%" y2="100%">
      <stop offset="0%" style="stop-color:#0a0e1a"/>
      <stop offset="100%" style="stop-color:#141b2d"/>
    </linearGradient>
    <linearGradient id="accent" x1="0%" y1="0%" x2="0%" y2="100%">
      <stop offset="0%" style="stop-color:#00d4ff"/>
      <stop offset="100%" style="stop-color:#0099cc"/>
    </linearGradient>
  </defs>
  <rect width="200" height="200" rx="32" fill="url(#bg)"/>
  <!-- ASIC chip icon -->
  <rect x="70" y="48" width="60" height="60" rx="6" fill="none" stroke="url(#accent)" stroke-width="3"/>
  <!-- Chip inner -->
  <rect x="82" y="60" width="36" height="36" rx="4" fill="#00d4ff" opacity="0.15"/>
  <!-- Eye/Seer in center of chip -->
  <ellipse cx="100" cy="78" rx="14" ry="9" fill="none" stroke="#00d4ff" stroke-width="2"/>
  <circle cx="100" cy="78" r="4" fill="#00d4ff"/>
  <!-- Chip pins -->
  <line x1="80" y1="48" x2="80" y2="38" stroke="#00d4ff" stroke-width="2"/>
  <line x1="92" y1="48" x2="92" y2="38" stroke="#00d4ff" stroke-width="2"/>
  <line x1="108" y1="48" x2="108" y2="38" stroke="#00d4ff" stroke-width="2"/>
  <line x1="120" y1="48" x2="120" y2="38" stroke="#00d4ff" stroke-width="2"/>
  <line x1="80" y1="108" x2="80" y2="118" stroke="#00d4ff" stroke-width="2"/>
  <line x1="92" y1="108" x2="92" y2="118" stroke="#00d4ff" stroke-width="2"/>
  <line x1="108" y1="108" x2="108" y2="118" stroke="#00d4ff" stroke-width="2"/>
  <line x1="120" y1="108" x2="120" y2="118" stroke="#00d4ff" stroke-width="2"/>
  <line x1="70" y1="60" x2="60" y2="60" stroke="#00d4ff" stroke-width="2"/>
  <line x1="70" y1="78" x2="60" y2="78" stroke="#00d4ff" stroke-width="2"/>
  <line x1="70" y1="96" x2="60" y2="96" stroke="#00d4ff" stroke-width="2"/>
  <line x1="130" y1="60" x2="140" y2="60" stroke="#00d4ff" stroke-width="2"/>
  <line x1="130" y1="78" x2="140" y2="78" stroke="#00d4ff" stroke-width="2"/>
  <line x1="130" y1="96" x2="140" y2="96" stroke="#00d4ff" stroke-width="2"/>
  <!-- ASICSeer text -->
  <text x="100" y="150" text-anchor="middle" font-family="Arial,Helvetica,sans-serif" font-weight="bold" font-size="24" fill="#ffffff">ASICSeer</text>
  <!-- BCH Mining -->
  <text x="100" y="172" text-anchor="middle" font-family="Arial,Helvetica,sans-serif" font-size="12" fill="#00d4ff" opacity="0.8">BCH Mining Pool</text>
</svg>
